<svg xmlns="http://www.w3.org/2000/svg" fill="none" viewBox="0 0 21 16" aria-hidden="true" className="icon is-ce"><path d="M21 15.96v-2.417a4.94 4.94 0 0 1-.75.057c-2.514 0-4.614-1.884-5.13-4.4h4.38V6.8h-4.38c.516-2.516 2.617-4.4 5.13-4.4.255 0 .505.02.75.057V.039A7.115 7.115 0 0 0 20.25 0c-4.142 0-7.5 3.582-7.5 8s3.358 8 7.5 8c.253 0 .503-.013.75-.04ZM0 8c0 4.418 3.358 8 7.5 8 .27 0 .537-.015.8-.045v-2.42a4.96 4.96 0 0 1-.8.065c-2.9 0-5.25-2.507-5.25-5.6 0-3.093 2.35-5.6 5.25-5.6.272 0 .54.022.8.065V.045A7.145 7.145 0 0 0 7.5 0C3.358 0 0 3.582 0 8Z" fill="currentColor"></path>
          </svg>